# xmcd
#
# Track frame offsets: 
#        150
#        11195
#        22023
#        23780
#        29430
#        40658
#        64655
#        89381
#        103483
#        106452
#        127202
#        136155
#        162326
#        167531
#        173499
#        178386
#        183185
#        183815
#        186446
#        193244
#        198082
#        198765
#        199306
#        199756
#        201079
#        202429
#        221709
#        230831
#        247074
#        250323
#        254384
#        263917
#        273203
#        274896
#        289514
#        305905
#        308262
#        335267
#        337075
#
# Disc length: 4504 seconds
#
# Revision: 0
# Processed by: cddbd v1.5.2PL0 Copyright (c) Steve Scherf et al.
# Submitted via: ExactAudioCopy v0.95b4
#
DISCID=5f119627
DTITLE=The Beatles  - AB  Road - Complete Purple Chick Set v1.1 Jan.09
DTITLE=Various Artist - D3  FLAC
DYEAR=1900
DGENRE=
TTITLE0=She Came In Through The Bathroom Window 9.55
TTITLE1=She Came In Through The Bathroom Window 9.56
TTITLE2=She Came In Through The Bathroom Window 9.57
TTITLE3=Unknown 9.58
TTITLE4=Get Back 9.59
TTITLE5=Get Back 9.60
TTITLE6=Get Back 9.61
TTITLE7=Get Back 9.62
TTITLE8=Get Back 9.63
TTITLE9=Get Back 9.64
TTITLE10=Let It Be 9.65
TTITLE11=Instrumental 9.66
TTITLE12=La Penina 9.67
TTITLE13=Instrumental 9.68
TTITLE14=Across The Universe 9.69
TTITLE15=Across The Universe 9.70
TTITLE16=Across The Universe 9.71
TTITLE17=Across The Universe 9.72
TTITLE18=Across The Universe 9.73
TTITLE19=Across The Universe 9.74
TTITLE20=Across The Universe 9.75
TTITLE21=Across The Universe 9.76
TTITLE22=Across The Universe 9.77
TTITLE23=Teddy Boy 9.78
TTITLE24=Junk 9.79
TTITLE25=Across The Universe 9.80
TTITLE26=Across The Universe 9.81
TTITLE27=Across The Universe 9.82
TTITLE28=Shakin' In The Sixties 9.83
TTITLE29=Move It 9.84
TTITLE30=Good Rockin' Tonight 9.85
TTITLE31=Tennessee 9.86
TTITLE32=Across The Universe 9.87
TTITLE33=House Of The Rising Sun 9.88
TTITLE34=Commonwealth 9.89
TTITLE35=Enoch Powell 9.90
TTITLE36=Get Off 9.91
TTITLE37=For You Blue 9.92
TTITLE38=Get Off 9.93
EXTD=
EXTT0=
EXTT1=
EXTT2=
EXTT3=
EXTT4=
EXTT5=
EXTT6=
EXTT7=
EXTT8=
EXTT9=
EXTT10=
EXTT11=
EXTT12=
EXTT13=
EXTT14=
EXTT15=
EXTT16=
EXTT17=
EXTT18=
EXTT19=
EXTT20=
EXTT21=
EXTT22=
EXTT23=
EXTT24=
EXTT25=
EXTT26=
EXTT27=
EXTT28=
EXTT29=
EXTT30=
EXTT31=
EXTT32=
EXTT33=
EXTT34=
EXTT35=
EXTT36=
EXTT37=
EXTT38=
PLAYORDER=
